<svg width="16" height="17" viewBox="0 0 17 18" fill="none" xmlns="http://www.w3.org/2000/svg">
<path d="M1.6001 4.2H3.2001H16.0001" stroke="#1D1929" stroke-width="1.6" stroke-linecap="round" stroke-linejoin="round"/>
<path d="M5.6001 4.2V2.6C5.6001 2.17565 5.76868 1.76869 6.06873 1.46863C6.36879 1.16857 6.77576 1 7.20011 1H10.4001C10.8245 1 11.2314 1.16857 11.5315 1.46863C11.8315 1.76869 12.0001 2.17565 12.0001 2.6V4.2M14.4001 4.2V15.4C14.4001 15.8243 14.2315 16.2313 13.9315 16.5314C13.6314 16.8314 13.2245 17 12.8001 17H4.8001C4.37576 17 3.96879 16.8314 3.66873 16.5314C3.36867 16.2313 3.2001 15.8243 3.2001 15.4V4.2H14.4001Z" stroke="#1D1929" stroke-width="1.6" stroke-linecap="round" stroke-linejoin="round"/>
<path d="M10.4001 8.2V13" stroke="#1D1929" stroke-width="1.6" stroke-linecap="round" stroke-linejoin="round"/>
<path d="M7.2001 8.2V13" stroke="#1D1929" stroke-width="1.6" stroke-linecap="round" stroke-linejoin="round"/>
</svg>
