<svg width="30" height="20" viewBox="0 0 30 20" fill="none" xmlns="http://www.w3.org/2000/svg">
<rect x="2" width="28" height="15.4" rx="7.7" fill="#C0CADA"/>
<g filter="url(#filter0_d_1_121)">
<path fill-rule="evenodd" clip-rule="evenodd" d="M3.4668 7.4651C3.4668 4.11458 6.18294 1.39844 9.53346 1.39844C12.884 1.39844 15.6001 4.11458 15.6001 7.4651C15.6001 10.8156 12.884 13.5318 9.53346 13.5318C6.18294 13.5318 3.4668 10.8156 3.4668 7.4651Z" fill="white"/>
<path d="M9.53346 1.14844C6.04487 1.14844 3.2168 3.97651 3.2168 7.4651C3.2168 10.9537 6.04487 13.7818 9.53346 13.7818C13.0221 13.7818 15.8501 10.9537 15.8501 7.4651C15.8501 3.97651 13.0221 1.14844 9.53346 1.14844Z" stroke="#090B0F" stroke-opacity="0.05" stroke-width="0.5"/>
</g>
<defs>
<filter id="filter0_d_1_121" x="0.966797" y="0.898438" width="17.1333" height="18.1333" filterUnits="userSpaceOnUse" color-interpolation-filters="sRGB">
<feFlood flood-opacity="0" result="BackgroundImageFix"/>
<feColorMatrix in="SourceAlpha" type="matrix" values="0 0 0 0 0 0 0 0 0 0 0 0 0 0 0 0 0 0 127 0" result="hardAlpha"/>
<feOffset dy="3"/>
<feGaussianBlur stdDeviation="1"/>
<feColorMatrix type="matrix" values="0 0 0 0 0.0352941 0 0 0 0 0.0431373 0 0 0 0 0.0588235 0 0 0 0.05 0"/>
<feBlend mode="normal" in2="BackgroundImageFix" result="effect1_dropShadow_1_121"/>
<feBlend mode="normal" in="SourceGraphic" in2="effect1_dropShadow_1_121" result="shape"/>
</filter>
</defs>
</svg>
