<svg width="17" height="17" viewBox="0 0 19 18" fill="none" xmlns="http://www.w3.org/2000/svg">
<path d="M1.89433 17.62H6.40667C6.54673 17.6208 6.68558 17.5946 6.81524 17.5429C6.9449 17.4912 7.06284 17.4151 7.16228 17.3189L14.5268 10.1229L17.5492 7.23626C17.6489 7.13973 17.7281 7.02488 17.7821 6.89835C17.8362 6.77181 17.864 6.63609 17.864 6.49901C17.864 6.36193 17.8362 6.22621 17.7821 6.09968C17.7281 5.97314 17.6489 5.8583 17.5492 5.76177L13.0368 1.30715C12.9379 1.20982 12.8202 1.13257 12.6905 1.07986C12.5608 1.02714 12.4217 1 12.2812 1C12.1407 1 12.0016 1.02714 11.872 1.07986C11.7423 1.13257 11.6246 1.20982 11.5256 1.30715L8.5245 4.24574L1.13872 11.4417C1.04009 11.5387 0.962054 11.6538 0.909093 11.7803C0.856131 11.9068 0.829286 12.0423 0.830096 12.1789V16.5816C0.830096 16.857 0.94222 17.1211 1.1418 17.3159C1.34138 17.5106 1.61208 17.62 1.89433 17.62ZM12.2812 3.5085L15.293 6.44709L13.7818 7.92158L10.77 4.98299L12.2812 3.5085ZM2.95856 12.6046L9.26946 6.44709L12.2812 9.38569L5.97034 15.5432H2.95856V12.6046Z" fill="#1D1929" stroke="white" stroke-width="0.4"/>
</svg>
