<svg width="1440" height="75" viewBox="0 0 1440 75" fill="none" xmlns="http://www.w3.org/2000/svg">
<mask id="mask0_1_50" style="mask-type:alpha" maskUnits="userSpaceOnUse" x="-1" y="-1" width="1442" height="68">
<rect width="66" height="1440" transform="matrix(4.37114e-08 1 1 -4.37114e-08 0 6.10352e-05)" fill="#4C6EF5" stroke="black" stroke-opacity="0.2"/>
</mask>
<g mask="url(#mask0_1_50)">
<g opacity="0.05">
<path opacity="0.8" d="M1452.52 122.297C1451.6 119.716 1449.71 117.516 1447.06 115.936L1021.66 -137.247C1017.93 -139.468 1013.08 -140.268 1008 -139.499C1002.92 -138.73 998.213 -136.489 994.759 -133.189L600.35 243.586C595.894 247.842 594.233 253.195 595.909 257.894C596.832 260.475 598.719 262.676 601.37 264.256L1026.78 517.439C1030.5 519.66 1035.35 520.459 1040.44 519.69C1045.52 518.926 1050.22 516.681 1053.67 513.381L1448.07 136.602C1452.53 132.346 1454.19 126.999 1452.52 122.297ZM597.374 257.406C595.836 253.082 597.365 248.156 601.466 244.243L995.875 -132.533C999.05 -135.571 1003.38 -137.634 1008.05 -138.338C1012.73 -139.042 1017.19 -138.306 1020.61 -136.263L1446.03 116.918C1448.47 118.371 1450.2 120.392 1451.05 122.768C1452.59 127.097 1451.05 132.018 1446.96 135.934L1052.55 512.705C1049.37 515.745 1045.05 517.801 1040.37 518.512C1035.69 519.216 1031.23 518.479 1027.8 516.439L602.395 263.256C599.952 261.808 598.216 259.782 597.374 257.406Z" fill="white"/>
<path opacity="0.8" d="M1451.1 108.154C1450.18 105.576 1448.28 103.396 1445.59 101.847L1026.06 -140.266C1022.38 -142.389 1017.63 -143.12 1012.67 -142.324C1007.72 -141.528 1003.16 -139.301 999.83 -136.049L620.669 234.33C616.445 238.455 614.885 243.618 616.488 248.137C617.409 250.713 619.306 252.9 621.991 254.449L1041.52 496.561C1049.12 500.947 1060.89 499.054 1067.76 492.35L1446.92 121.964C1451.15 117.839 1452.71 112.674 1451.1 108.154ZM617.969 247.655C616.488 243.505 617.923 238.767 621.803 234.976L1000.97 -135.398C1004.02 -138.379 1008.2 -140.428 1012.75 -141.159C1017.3 -141.892 1021.67 -141.218 1025.04 -139.268L1444.58 102.844C1447.04 104.266 1448.78 106.268 1449.63 108.632C1451.11 112.782 1449.67 117.52 1445.79 121.306L1066.63 491.69C1060.33 497.845 1049.52 499.584 1042.55 495.56L623.022 253.448C620.559 252.026 618.809 250.025 617.969 247.655Z" fill="white"/>
<path opacity="0.8" d="M1449.68 94.0037C1448.77 91.4259 1446.85 89.2611 1444.13 87.7482L1030.47 -143.289C1022.97 -147.478 1011.5 -145.514 1004.91 -138.918L640.993 225.064C636.994 229.06 635.536 234.034 637.079 238.373C637.994 240.951 639.913 243.116 642.623 244.63L1056.28 475.668C1059.92 477.697 1064.58 478.36 1069.41 477.531C1074.24 476.707 1078.65 474.49 1081.85 471.297L1445.77 107.311C1449.77 103.317 1451.23 98.3411 1449.68 94.0037ZM638.561 237.896C637.147 233.924 638.484 229.363 642.14 225.706L1006.05 -138.276C1012.09 -144.322 1022.6 -146.114 1029.47 -142.281L1443.13 88.7567C1445.62 90.1441 1447.38 92.1263 1448.22 94.487C1449.63 98.4588 1448.29 103.015 1444.63 106.674L1080.72 470.659C1077.79 473.589 1073.75 475.613 1069.32 476.372C1064.9 477.132 1060.63 476.521 1057.3 474.663L643.646 243.626C641.158 242.239 639.399 240.256 638.561 237.896Z" fill="white"/>
<path opacity="0.8" d="M1448.27 79.8577C1447.35 77.28 1445.42 75.1357 1442.67 73.6538L1034.89 -146.31C1031.31 -148.242 1026.75 -148.837 1022.05 -147.981C1017.34 -147.126 1013.07 -144.923 1010 -141.778L661.335 215.813C657.568 219.678 656.205 224.465 657.687 228.619C658.608 231.195 660.536 233.342 663.287 234.823L1071.07 454.79C1078.47 458.78 1089.64 456.752 1095.97 450.263L1444.62 92.6639C1448.39 88.8043 1449.75 84.0173 1448.27 79.8577ZM659.148 228.143C657.798 224.344 659.047 219.968 662.485 216.439L1011.15 -141.152C1013.95 -144.025 1017.86 -146.04 1022.16 -146.821C1026.45 -147.602 1030.62 -147.058 1033.9 -145.292L1441.69 74.6731C1444.19 76.0285 1445.97 77.9853 1446.8 80.3411C1448.15 84.14 1446.91 88.5139 1443.47 92.0454L1094.8 449.636C1089.02 455.565 1078.81 457.423 1072.05 453.776L664.271 233.809C661.757 232.456 659.991 230.497 659.148 228.143Z" fill="white"/>
<path opacity="0.8" d="M1446.86 65.7116C1445.94 63.1357 1443.99 61.0069 1441.21 59.5591L1039.31 -149.327C1035.77 -151.167 1031.3 -151.693 1026.73 -150.806C1022.15 -149.921 1018.02 -147.729 1015.08 -144.636L681.668 206.556C678.126 210.287 676.857 214.886 678.273 218.863C679.188 221.441 681.145 223.568 683.922 225.016L1085.83 433.907C1089.37 435.747 1093.84 436.273 1098.41 435.383C1102.99 434.499 1107.13 432.311 1110.06 429.221L1443.48 78.0217C1447.01 74.2932 1448.28 69.6933 1446.86 65.7116ZM679.741 218.385C678.448 214.756 679.607 210.56 682.833 207.161L1016.24 -144.031C1018.92 -146.851 1022.69 -148.848 1026.86 -149.651C1031.03 -150.46 1035.11 -149.979 1038.33 -148.305L1440.24 60.5913C1442.77 61.9076 1444.56 63.846 1445.39 66.1968C1446.68 69.8209 1445.52 74.0164 1442.3 77.4206L1108.88 428.615C1106.2 431.435 1102.43 433.427 1098.26 434.234C1094.09 435.044 1090.02 434.563 1086.79 432.888L684.884 223.997C682.357 222.674 680.576 220.736 679.741 218.385Z" fill="white"/>
<path opacity="0.8" d="M1445.46 51.5613C1444.55 48.9786 1442.57 46.874 1439.75 45.4689L1043.72 -152.352C1036.52 -155.952 1025.94 -153.773 1020.16 -147.502L701.988 197.301C698.668 200.892 697.502 205.308 698.852 209.107C699.769 211.689 701.741 213.796 704.555 215.201L1100.59 413.015C1104.08 414.762 1108.46 415.214 1112.91 414.298C1117.36 413.38 1121.36 411.206 1124.16 408.165L1442.32 63.3742C1445.64 59.7778 1446.81 55.3651 1445.46 51.5613ZM700.321 208.633C699.093 205.177 700.156 201.164 703.171 197.895L1021.34 -146.908C1026.6 -152.612 1036.21 -154.591 1042.76 -151.319L1438.8 46.5052C1441.36 47.7827 1443.16 49.6956 1443.99 52.0416C1445.22 55.4976 1444.15 59.5108 1441.14 62.7799L1122.97 407.583C1120.42 410.35 1116.79 412.328 1112.75 413.158C1108.7 413.989 1104.72 413.577 1101.55 411.992L705.514 214.172C702.951 212.897 701.155 210.979 700.321 208.633Z" fill="white"/>
<path opacity="0.8" d="M1444.06 37.4125C1443.14 34.8298 1441.15 32.7457 1438.29 31.3735L1048.13 -155.372C1044.69 -157.02 1040.42 -157.406 1036.09 -156.462C1031.76 -155.518 1027.91 -153.347 1025.23 -150.364L722.315 188.043C719.171 191.556 718.119 195.678 719.426 199.357C720.344 201.944 722.339 204.028 725.198 205.394L1115.35 392.139C1122.46 395.543 1132.73 393.293 1138.25 387.131L1441.18 48.7244C1444.32 45.2107 1445.37 41.0887 1444.06 37.4125ZM720.902 198.881C719.716 195.546 720.668 191.81 723.516 188.626L1026.43 -149.785C1028.86 -152.494 1032.36 -154.455 1036.27 -155.312C1040.2 -156.172 1044.07 -155.819 1047.2 -154.323L1437.36 32.4159C1439.95 33.6573 1441.76 35.545 1442.59 37.886C1443.77 41.2212 1442.82 44.9641 1439.97 48.1426L1137.05 386.554C1132.04 392.146 1122.74 394.181 1116.29 391.097L726.132 204.351C723.545 203.115 721.734 201.222 720.902 198.881Z" fill="white"/>
<path opacity="0.8" d="M1442.66 23.2572C1441.75 20.6696 1439.72 18.6047 1436.82 17.2772L1052.55 -158.395C1049.15 -159.945 1044.97 -160.262 1040.77 -159.286C1036.57 -158.309 1032.86 -156.153 1030.32 -153.22L742.657 178.788C739.729 182.165 738.773 186.104 740.014 189.605C740.939 192.19 742.95 194.259 745.848 195.587L1130.14 371.255C1133.53 372.812 1137.72 373.127 1141.91 372.151C1146.11 371.171 1149.83 369.018 1152.36 366.085L1440.02 34.0737C1442.95 30.6972 1443.91 26.7555 1442.66 23.2572ZM741.475 189.128C740.346 185.963 741.22 182.398 743.859 179.35L1031.53 -152.665C1033.83 -155.321 1037.18 -157.266 1040.98 -158.15C1044.78 -159.031 1048.56 -158.747 1051.63 -157.342L1435.91 18.3286C1438.53 19.5292 1440.36 21.3964 1441.19 23.7375C1442.32 26.9028 1441.44 30.4672 1438.81 33.5154L1151.14 365.528C1148.84 368.18 1145.48 370.127 1141.69 371.013C1137.89 371.9 1134.12 371.609 1131.04 370.211L746.758 194.535C744.132 193.336 742.306 191.464 741.475 189.128Z" fill="white"/>
<path opacity="0.8" d="M1441.27 9.10718C1440.36 6.54904 1438.26 4.4473 1435.36 3.18443L1056.95 -161.416C1053.61 -162.873 1049.51 -163.121 1045.44 -162.112C1041.37 -161.102 1037.8 -158.961 1035.39 -156.08L762.969 169.537C760.263 172.769 759.39 176.531 760.573 179.856C761.483 182.414 763.582 184.516 766.482 185.779L1144.89 350.379C1148.24 351.832 1152.32 352.081 1156.4 351.075C1160.47 350.066 1164.05 347.924 1166.46 345.043L1438.87 19.4216C1441.58 16.189 1442.45 12.4277 1441.27 9.10718ZM762.048 179.376C760.981 176.379 761.771 172.988 764.207 170.073L1036.63 -155.546C1038.8 -158.145 1042.02 -160.071 1045.69 -160.981C1049.36 -161.889 1053.05 -161.668 1056.07 -160.355L1434.48 4.24972C1437.09 5.38762 1438.98 7.28382 1439.8 9.58561C1440.87 12.5829 1440.08 15.9738 1437.64 18.8887L1165.22 344.507C1163.05 347.101 1159.83 349.033 1156.16 349.943C1152.49 350.851 1148.8 350.63 1145.78 349.317L767.375 184.717C764.76 183.579 762.863 181.684 762.048 179.376Z" fill="white"/>
<path opacity="0.8" d="M1439.89 -5.05145C1438.98 -7.61452 1436.85 -9.69698 1433.9 -10.9133L1061.37 -164.438C1058.07 -165.798 1054.08 -165.978 1050.13 -164.936C1046.18 -163.9 1042.75 -161.767 1040.47 -158.94L783.297 160.282C780.8 163.379 780.015 166.955 781.134 170.108C782.045 172.671 784.174 174.753 787.125 175.969L1159.66 329.494C1166.47 332.301 1175.84 329.837 1180.55 323.996L1437.73 4.77449C1440.22 1.67704 1441.01 -1.90388 1439.89 -5.05145ZM782.608 169.627C781.605 166.798 782.31 163.581 784.55 160.797L1041.73 -158.425C1043.77 -160.966 1046.86 -162.881 1050.4 -163.813C1053.95 -164.745 1057.54 -164.586 1060.51 -163.364L1433.03 -9.83706C1435.68 -8.74681 1437.59 -6.87787 1438.42 -4.57119C1439.42 -1.74191 1438.71 1.47546 1436.47 4.25893L1179.3 323.481C1175.07 328.729 1166.64 330.947 1160.52 328.423L787.992 174.893C785.341 173.803 783.43 171.934 782.608 169.627Z" fill="white"/>
<path opacity="0.8" d="M1438.51 -19.212C1437.59 -21.7849 1435.44 -23.8431 1432.44 -25.008L1065.78 -167.462C1059.06 -170.073 1049.99 -167.532 1045.56 -161.803L803.631 151.028C801.349 153.983 800.64 157.382 801.701 160.36C802.615 162.933 804.774 164.996 807.774 166.161L1174.43 308.615C1181.15 311.228 1190.22 308.69 1194.65 302.956L1436.58 -9.87945C1438.86 -12.8349 1439.56 -16.2324 1438.51 -19.212ZM803.169 159.882C802.221 157.217 802.848 154.172 804.893 151.525L1046.81 -161.304C1050.79 -166.437 1058.91 -168.711 1064.93 -166.375L1431.59 -23.9227C1434.28 -22.8801 1436.21 -21.0335 1437.03 -18.7317C1437.98 -16.0625 1437.35 -13.0217 1435.3 -10.3727L1193.38 302.456C1189.41 307.589 1181.28 309.863 1175.27 307.527L808.609 165.073C805.922 164.03 803.989 162.183 803.169 159.882Z" fill="white"/>
<path opacity="0.8" d="M1437.13 -33.3715C1436.21 -35.9572 1434.02 -37.9912 1430.97 -39.1076L1070.18 -170.487C1063.56 -172.897 1054.79 -170.281 1050.63 -164.659L823.954 141.78C821.872 144.593 821.253 147.812 822.249 150.616C823.167 153.204 825.361 155.241 828.417 156.353L1189.2 287.731C1195.82 290.142 1204.59 287.526 1208.75 281.904L1435.43 -24.5304C1437.51 -27.3427 1438.13 -30.5668 1437.13 -33.3715ZM823.723 150.136C822.829 147.632 823.386 144.761 825.242 142.248L1051.91 -164.189C1055.63 -169.209 1063.46 -171.542 1069.37 -169.387L1430.16 -38.0103C1432.89 -37.0173 1434.84 -35.1979 1435.66 -32.8912C1436.55 -30.3901 1435.99 -27.5141 1434.13 -25.0014L1207.46 281.436C1203.75 286.456 1195.92 288.789 1190 286.631L829.219 155.252C826.498 154.262 824.545 152.443 823.723 150.136Z" fill="white"/>
<path opacity="0.8" d="M1435.77 -47.5301C1434.84 -50.1305 1432.62 -52.1384 1429.5 -53.1946L1074.59 -173.503C1071.43 -174.573 1067.72 -174.543 1064.16 -173.409C1060.59 -172.28 1057.59 -170.183 1055.71 -167.512L844.281 132.529C842.369 135.239 841.846 138.201 842.796 140.875C843.725 143.476 845.948 145.489 849.066 146.545L1203.97 266.849C1210.49 269.06 1218.97 266.37 1222.85 260.859L1434.28 -39.1835C1436.19 -41.8917 1436.72 -44.856 1435.77 -47.5301ZM844.264 140.397C843.421 138.017 843.884 135.386 845.584 132.971L1057.02 -167.066C1058.69 -169.439 1061.36 -171.304 1064.53 -172.313C1067.7 -173.321 1070.99 -173.35 1073.8 -172.397L1428.72 -52.0951C1431.5 -51.1535 1433.47 -49.3663 1434.29 -47.0498C1435.13 -44.6744 1434.67 -42.0384 1432.97 -39.6291L1221.54 260.413C1218.08 265.317 1210.55 267.706 1204.74 265.741L849.837 145.433C847.068 144.499 845.094 142.707 844.264 140.397Z" fill="white"/>
<path opacity="0.8" d="M1434.41 -61.6944C1433.47 -64.3096 1431.21 -66.2992 1428.02 -67.2934L1079 -176.529C1072.57 -178.538 1064.4 -175.778 1060.78 -170.37L864.601 123.276C862.894 125.836 862.434 128.625 863.328 131.13C864.262 133.745 866.527 135.734 869.706 136.73L1218.75 245.967C1225.17 247.976 1233.34 245.211 1236.96 239.804L1433.13 -53.8405C1434.85 -56.4025 1435.3 -59.1903 1434.41 -61.6944ZM864.803 130.649C864.013 128.429 864.417 125.959 865.931 123.689L1062.11 -169.957C1065.32 -174.75 1072.56 -177.198 1078.25 -175.419L1427.28 -66.1788C1430.1 -65.2967 1432.1 -63.5355 1432.93 -61.2141C1433.72 -58.9988 1433.32 -56.524 1431.8 -54.254L1235.63 239.39C1232.42 244.183 1225.19 246.629 1219.49 244.847L870.454 135.614C867.636 134.732 865.629 132.971 864.803 130.649Z" fill="white"/>
<path opacity="0.8" d="M1433.06 -75.8584C1432.13 -78.4588 1429.76 -80.4728 1426.56 -81.3869L1083.4 -179.55C1080.33 -180.427 1076.82 -180.251 1073.51 -179.059C1070.2 -177.865 1067.49 -175.792 1065.87 -173.225L884.938 114.028C883.416 116.444 883.035 119.062 883.864 121.393C884.785 123.99 887.158 126.007 890.364 126.926L1233.52 225.084C1239.85 226.897 1247.72 224.055 1251.06 218.759L1431.99 -68.4933C1433.51 -70.9091 1433.89 -73.5222 1433.06 -75.8584ZM885.332 120.914C884.596 118.854 884.932 116.542 886.274 114.413L1067.21 -172.837C1068.63 -175.102 1071.03 -176.93 1073.95 -177.984C1076.88 -179.039 1079.98 -179.197 1082.69 -178.421L1425.85 -80.2603C1428.68 -79.4514 1430.77 -77.67 1431.58 -75.3781C1432.32 -73.318 1431.98 -71.0109 1430.64 -68.8765L1249.71 218.378C1246.76 223.054 1239.82 225.56 1234.23 223.962L891.075 125.805C888.242 124.991 886.15 123.206 885.332 120.914Z" fill="white"/>
</g>
<g opacity="0.15">
<path opacity="0.8" d="M446.065 -44.0832C445.052 -45.6949 443.496 -46.9297 441.562 -47.6514L131.227 -163.243C128.507 -164.258 125.317 -164.177 122.243 -163.017C119.169 -161.856 116.579 -159.758 114.952 -157.109L-70.7682 145.393C-72.8667 148.81 -73.0208 152.606 -71.1804 155.542C-70.168 157.154 -68.612 158.388 -66.6775 159.11L243.658 274.702C246.377 275.716 249.567 275.636 252.641 274.476C255.717 273.318 258.305 271.217 259.932 268.567L445.647 -33.9348C447.745 -37.3519 447.901 -41.1454 446.065 -44.0832ZM-70.3384 155.029C-72.0294 152.327 -71.8871 148.833 -69.9554 145.691L115.765 -156.811C117.259 -159.249 119.643 -161.181 122.471 -162.246C125.299 -163.311 128.233 -163.384 130.733 -162.451L441.072 -46.862C442.855 -46.1986 444.285 -45.0648 445.212 -43.5804C446.905 -40.8755 446.761 -37.3846 444.834 -34.2411L259.112 268.257C257.614 270.698 255.233 272.624 252.403 273.695C249.575 274.76 246.64 274.833 244.136 273.902L-66.1986 158.311C-67.9796 157.65 -69.4115 156.513 -70.3384 155.029Z" fill="white"/>
<path opacity="0.8" d="M442.806 -53.3772C441.799 -54.9879 440.237 -56.207 438.287 -56.9036L133.5 -165.825C130.828 -166.78 127.708 -166.665 124.719 -165.503C121.73 -164.341 119.225 -162.27 117.671 -159.669L-59.5066 136.611C-61.4807 139.911 -61.6025 143.568 -59.8389 146.392C-58.8283 148.001 -57.2681 149.225 -55.3176 149.922L249.469 258.843C254.987 260.816 262.092 258.053 265.299 252.69L442.479 -43.5954C444.454 -46.8951 444.579 -50.5544 442.806 -53.3772ZM-58.9859 145.881C-60.6111 143.289 -60.4973 139.932 -58.6841 136.9L118.496 -159.377C119.92 -161.761 122.219 -163.666 124.961 -164.733C127.708 -165.802 130.571 -165.904 133.025 -165.027L437.811 -56.1061C439.601 -55.4666 441.034 -54.3464 441.961 -52.8703C443.586 -50.2783 443.472 -46.9216 441.657 -43.8922L264.481 252.391C261.533 257.315 255.016 259.851 249.952 258.041L-54.8349 149.12C-56.6242 148.48 -58.0608 147.362 -58.9859 145.881Z" fill="white"/>
<path opacity="0.8" d="M439.555 -62.6772C438.548 -64.2879 436.978 -65.4945 435.013 -66.163L135.777 -168.411C130.35 -170.264 123.45 -167.492 120.392 -162.236L-48.2435 127.823C-50.0971 131.007 -50.1865 134.525 -48.4904 137.236C-47.4835 138.847 -45.9133 140.053 -43.9523 140.724L255.284 242.971C257.914 243.869 260.961 243.721 263.867 242.553C266.774 241.387 269.188 239.341 270.669 236.796L439.312 -53.266C441.161 -56.4485 441.255 -59.9682 439.555 -62.6772ZM-47.6357 136.728C-49.1895 134.247 -49.1077 131.021 -47.4133 128.107L121.222 -161.951C124.02 -166.768 130.344 -169.304 135.314 -167.608L434.551 -65.3603C436.35 -64.7469 437.789 -63.6423 438.711 -62.1672C440.265 -59.6859 440.181 -56.4636 438.483 -53.5473L269.853 236.512C268.496 238.847 266.283 240.717 263.622 241.787C260.961 242.857 258.169 242.99 255.761 242.169L-43.4751 139.921C-45.2749 139.308 -46.7139 138.203 -47.6357 136.728Z" fill="white"/>
<path opacity="0.8" d="M436.305 -71.9741C435.298 -73.5848 433.721 -74.7757 431.74 -75.4191L138.059 -170.995C135.476 -171.834 132.502 -171.654 129.682 -170.483C126.862 -169.313 124.532 -167.294 123.125 -164.797L-36.9663 119.042C-38.6954 122.11 -38.7564 125.49 -37.1295 128.085C-36.1188 129.694 -34.5461 130.887 -32.5652 131.53L261.122 227.107C266.452 228.84 273.155 226.063 276.058 220.912L436.142 -62.9315C437.872 -65.9957 437.933 -69.3758 436.305 -71.9741ZM-36.288 127.58C-37.7722 125.207 -37.715 122.116 -36.1375 119.315L123.954 -164.524C125.242 -166.805 127.368 -168.651 129.945 -169.72C132.522 -170.789 135.241 -170.954 137.6 -170.186L431.291 -74.6114C433.097 -74.0219 434.541 -72.936 435.461 -71.464C436.945 -69.0904 436.892 -66.0024 435.311 -63.1992L275.219 220.641C272.564 225.346 266.443 227.888 261.573 226.302L-32.114 130.725C-33.9244 130.138 -35.3641 129.05 -36.288 127.58Z" fill="white"/>
<path opacity="0.8" d="M433.059 -81.2726C432.048 -82.8812 430.464 -84.0597 428.472 -84.677L140.337 -173.577C137.801 -174.361 134.895 -174.145 132.163 -172.97C129.425 -171.796 127.185 -169.803 125.849 -167.358L-25.6958 110.258C-27.3061 113.207 -27.3385 116.45 -25.7829 118.934C-24.7761 120.545 -23.1876 121.721 -21.1964 122.339L266.941 211.242C269.477 212.025 272.382 211.81 275.119 210.633C277.857 209.459 280.098 207.469 281.43 205.026L432.977 -72.5955C434.584 -75.5424 434.616 -78.7852 433.059 -81.2726ZM-24.9375 118.428C-26.3577 116.161 -26.327 113.203 -24.8606 110.516L126.684 -167.1C127.901 -169.329 129.944 -171.146 132.438 -172.213C134.933 -173.286 137.581 -173.481 139.893 -172.769L428.032 -83.8621C429.847 -83.3017 431.293 -82.2294 432.212 -80.7605C433.63 -78.4967 433.599 -75.5387 432.135 -72.8486L280.586 204.77C279.369 206.999 277.324 208.812 274.833 209.882C272.337 210.955 269.69 211.15 267.377 210.438L-20.7601 121.534C-22.5732 120.969 -24.0192 119.896 -24.9375 118.428Z" fill="white"/>
<path opacity="0.8" d="M429.817 -90.5743C428.808 -92.1881 427.209 -93.3467 425.202 -93.9306L142.613 -176.164C137.474 -177.661 131.173 -174.858 128.571 -169.922L-14.4335 101.478C-15.9266 104.305 -15.925 107.412 -14.4408 109.785C-13.4322 111.399 -11.8376 112.56 -9.82989 113.144L272.761 195.372C275.251 196.099 278.086 195.845 280.737 194.667C283.391 193.486 285.547 191.522 286.803 189.13L429.807 -82.2615C431.299 -85.0922 431.302 -88.1975 429.817 -90.5743ZM-13.5937 109.281C-14.9443 107.122 -14.9438 104.298 -13.5886 101.725L129.416 -169.674C131.782 -174.164 137.507 -176.71 142.182 -175.35L424.776 -93.1158C426.6 -92.5846 428.051 -91.5311 428.967 -90.0653C430.318 -87.9059 430.317 -85.0824 428.962 -82.5094L285.958 188.89C284.812 191.068 282.852 192.855 280.444 193.924C278.033 194.994 275.454 195.224 273.195 194.564L-9.39699 112.333C-11.2248 111.804 -12.6771 110.747 -13.5937 109.281Z" fill="white"/>
<path opacity="0.8" d="M426.57 -99.8745C425.562 -101.488 423.957 -102.631 421.929 -103.188L144.891 -178.748C142.444 -179.414 139.687 -179.13 137.118 -177.948C134.548 -176.766 132.481 -174.822 131.295 -172.484L-3.16729 92.6941C-4.56223 95.4472 -4.5381 98.3424 -3.1007 100.64C-2.09042 102.257 -0.485633 103.4 1.54402 103.952L278.582 179.512C283.63 180.889 289.727 178.077 292.179 173.248L426.641 -91.9303C428.036 -94.6834 428.011 -97.5785 426.57 -99.8745ZM-2.2498 100.135C-3.55356 98.0508 -3.57691 95.427 -2.31273 92.9326L132.147 -172.249C133.224 -174.372 135.1 -176.129 137.426 -177.201C139.756 -178.276 142.256 -178.531 144.475 -177.926L421.515 -102.371C423.353 -101.868 424.808 -100.833 425.723 -99.3707C427.027 -97.2869 427.048 -94.6579 425.782 -92.1666L291.322 173.015C289.1 177.396 283.574 179.942 278.997 178.695L1.95854 103.135C0.121973 102.635 -1.33494 101.597 -2.2498 100.135Z" fill="white"/>
<path opacity="0.8" d="M423.331 -109.181C422.32 -110.798 420.7 -111.924 418.652 -112.446L147.168 -181.334C144.769 -181.941 142.081 -181.622 139.599 -180.435C137.113 -179.247 135.134 -177.332 134.025 -175.044L8.10903 83.9104C6.8274 86.5442 6.88178 89.305 8.24788 91.4923C9.26199 93.1071 10.8748 94.2376 12.9225 94.7589L284.414 163.643C286.811 164.255 289.503 163.934 291.985 162.748C294.466 161.558 296.45 159.644 297.56 157.356L423.47 -101.599C424.751 -104.233 424.701 -106.996 423.331 -109.181ZM9.08939 90.9875C7.84968 89.0104 7.80583 86.5115 8.96052 84.1343L134.878 -174.826C135.883 -176.897 137.671 -178.626 139.921 -179.701C142.167 -180.773 144.598 -181.063 146.767 -180.512L418.254 -111.626C420.105 -111.154 421.567 -110.135 422.482 -108.672C423.721 -106.695 423.765 -104.196 422.61 -101.819L296.697 157.139C295.69 159.207 293.898 160.938 291.654 162.014C289.409 163.09 286.981 163.375 284.81 162.828L13.3204 93.939C11.4657 93.4694 10.0026 92.4471 9.08939 90.9875Z" fill="white"/>
<path opacity="0.8" d="M420.092 -118.483C419.092 -120.081 417.419 -121.223 415.38 -121.701L149.441 -183.916C147.088 -184.468 144.468 -184.114 142.07 -182.92C139.671 -181.727 137.778 -179.839 136.739 -177.603L19.3676 75.1335C18.2014 77.6428 18.2784 80.2736 19.5787 82.3511C20.5786 83.9494 22.2523 85.0908 24.2909 85.5685L290.23 147.784C292.582 148.332 295.197 147.981 297.601 146.788C300 145.595 301.893 143.707 302.932 141.471L420.302 -111.269C421.468 -113.778 421.391 -116.409 420.092 -118.483ZM20.4278 81.8421C19.256 79.9695 19.1878 77.5976 20.2368 75.3355L137.612 -177.403C138.548 -179.42 140.252 -181.119 142.417 -182.195C144.577 -183.269 146.936 -183.589 149.06 -183.093L415 -120.875C416.838 -120.444 418.346 -119.414 419.247 -117.976C420.419 -116.104 420.487 -113.732 419.438 -111.47L302.063 141.269C301.125 143.283 299.422 144.985 297.258 146.061C295.097 147.135 292.738 147.455 290.615 146.959L24.676 84.7435C22.8382 84.3133 21.3268 83.2851 20.4278 81.8421Z" fill="white"/>
<path opacity="0.8" d="M416.861 -127.794C415.859 -129.395 414.17 -130.52 412.107 -130.96L151.718 -186.502C149.412 -186.994 146.866 -186.608 144.551 -185.408C142.238 -184.213 140.431 -182.348 139.467 -180.165L30.6347 66.3514C29.578 68.7435 29.6797 71.2389 30.9104 73.2089C31.9121 74.8102 33.6014 75.9349 35.664 76.375L296.053 131.917C300.816 132.932 306.312 130.091 308.304 125.581L417.136 -120.936C418.193 -123.328 418.09 -125.827 416.861 -127.794ZM31.7596 72.6998C30.6556 70.9318 30.5631 68.6869 31.5103 66.5377L140.343 -179.979C141.209 -181.942 142.833 -183.616 144.913 -184.691C146.994 -185.765 149.282 -186.115 151.355 -185.673L411.74 -130.129C413.593 -129.735 415.109 -128.725 416.011 -127.285C417.115 -125.517 417.208 -123.272 416.261 -121.122L307.428 125.394C305.642 129.447 300.699 132.003 296.421 131.089L36.0308 75.5439C34.1783 75.1502 32.6624 74.1408 31.7596 72.6998Z" fill="white"/>
<path opacity="0.8" d="M413.628 -137.105C412.622 -138.713 410.919 -139.817 408.834 -140.217L153.994 -189.088C149.323 -189.984 144.032 -187.13 142.195 -182.729L41.9062 57.5692C40.961 59.8389 41.0815 62.2063 42.2465 64.0665C43.2516 65.6741 44.9565 66.782 47.0414 67.1815L301.881 116.053C306.549 116.95 311.845 114.098 313.681 109.694L413.968 -130.608C414.913 -132.877 414.789 -135.243 413.628 -137.105ZM43.0918 63.5596C42.0502 61.8951 41.9372 59.775 42.7842 57.742L143.069 -182.554C144.716 -186.497 149.46 -189.053 153.64 -188.252L408.484 -139.383C410.351 -139.025 411.877 -138.034 412.778 -136.596C413.822 -134.928 413.933 -132.811 413.082 -130.776L312.798 109.52C311.15 113.463 306.407 116.019 302.226 115.218L47.386 66.3464C45.5189 65.9891 43.9929 64.9974 43.0918 63.5596Z" fill="white"/>
<path opacity="0.8" d="M410.4 -146.416C409.386 -148.031 407.669 -149.116 405.556 -149.476L156.267 -191.674C151.692 -192.448 146.598 -189.581 144.916 -185.287L53.1717 48.7932C52.3288 50.9417 52.4757 53.1769 53.571 54.9294C54.5813 56.5463 56.304 57.6323 58.415 57.9889L307.705 100.187C312.279 100.961 317.373 98.0943 319.055 93.7996L410.801 -140.277C411.644 -142.426 411.496 -144.664 410.4 -146.416ZM54.4202 54.4204C53.4392 52.8563 53.3112 50.8622 54.0619 48.9431L145.802 -185.135C147.305 -188.97 151.853 -191.527 155.935 -190.834L405.228 -148.638C407.114 -148.319 408.648 -147.348 409.551 -145.907C410.527 -144.344 410.656 -142.347 409.906 -140.428L318.165 93.6498C316.662 97.4848 312.114 100.042 308.027 99.3479L58.7375 57.1498C56.8574 56.8322 55.323 55.8613 54.4202 54.4204Z" fill="white"/>
<path opacity="0.8" d="M407.177 -155.728C406.158 -157.352 404.423 -158.415 402.282 -158.727L158.541 -194.254C156.368 -194.569 154.039 -194.079 151.98 -192.866C149.92 -191.656 148.382 -189.871 147.638 -187.842L64.4397 40.0145C63.6865 42.0729 63.8509 44.124 64.896 45.7947C65.9153 47.4189 67.6519 48.485 69.7928 48.7967L313.532 84.3212C318.01 84.9745 322.903 82.0965 324.432 77.9109L407.633 -149.947C408.383 -152.004 408.222 -154.057 407.177 -155.728ZM65.7413 45.2878C64.8127 43.8003 64.6658 41.9788 65.3345 40.1456L148.538 -187.71C149.194 -189.512 150.566 -191.1 152.396 -192.178C154.225 -193.257 156.299 -193.695 158.229 -193.413L401.973 -157.891C403.881 -157.613 405.422 -156.666 406.328 -155.219C407.255 -153.734 407.403 -151.91 406.733 -150.08L323.531 77.7789C322.171 81.5027 317.822 84.0599 313.834 83.4812L70.0932 47.9536C68.1925 47.6797 66.6497 46.7297 65.7413 45.2878Z" fill="white"/>
<path opacity="0.8" d="M403.956 -165.044C402.932 -166.677 401.172 -167.723 398.999 -167.984L160.812 -196.84C156.427 -197.371 151.738 -194.484 150.362 -190.402L75.7025 31.2348C75.0535 33.1667 75.2291 35.094 76.2102 36.6581C77.2346 38.2915 78.9945 39.3367 81.1636 39.6004L319.36 68.4555C323.744 68.9857 328.432 66.0956 329.808 62.014L404.464 -159.621C405.117 -161.555 404.937 -163.48 403.956 -165.044ZM77.0593 36.1491C76.1913 34.762 76.0336 33.056 76.6094 31.3429L151.269 -190.294C152.488 -193.912 156.642 -196.471 160.529 -196.003L398.717 -167.143C400.64 -166.91 402.199 -165.985 403.107 -164.535C403.973 -163.151 404.133 -161.442 403.557 -159.729L328.901 61.9059C327.682 65.5238 323.532 68.0806 319.64 67.6115L81.4491 38.7574C79.5261 38.5242 77.9673 37.5993 77.0593 36.1491Z" fill="white"/>
<path opacity="0.8" d="M400.745 -174.362C399.726 -175.986 397.899 -177.035 395.727 -177.241L163.085 -199.424C161.003 -199.622 158.819 -199.058 156.933 -197.839C155.043 -196.618 153.681 -194.885 153.088 -192.96L86.9767 22.4565C86.4206 24.2682 86.6168 26.0705 87.5282 27.527C88.5419 29.1501 90.3742 30.2 92.5477 30.4086L325.188 52.5891C329.481 52.9993 333.963 50.0971 335.185 46.1247L401.297 -169.292C401.853 -171.103 401.658 -172.903 400.745 -174.362ZM88.3736 27.0201C87.5661 25.7334 87.3921 24.1419 87.8827 22.5448L153.999 -192.87C154.519 -194.569 155.725 -196.098 157.39 -197.175C159.06 -198.254 160.986 -198.753 162.822 -198.577L395.468 -176.396C397.388 -176.213 398.998 -175.285 399.896 -173.853C400.703 -172.566 400.876 -170.978 400.387 -169.378L334.272 46.0405C333.195 49.5473 329.237 52.108 325.449 51.7473L92.8089 29.5668C90.8875 29.3814 89.2712 28.4517 88.3736 27.0201Z" fill="white"/>
<path opacity="0.8" d="M397.535 -183.686C396.513 -185.324 394.655 -186.348 392.445 -186.496L165.354 -202.006C163.319 -202.145 161.209 -201.545 159.407 -200.32C157.604 -199.094 156.327 -197.387 155.811 -195.513L98.2384 13.6842C97.7735 15.3727 97.9846 17.0491 98.8337 18.4021C99.8598 20.0386 101.714 21.0644 103.92 21.2146L331.017 36.7256C335.211 37.0118 339.492 34.0985 340.56 30.2322L398.132 -178.965C398.593 -180.651 398.382 -182.328 397.535 -183.686ZM99.6828 17.8931C98.9381 16.7016 98.7495 15.2277 99.1587 13.7445L156.733 -195.449C157.187 -197.095 158.308 -198.598 159.893 -199.675C161.479 -200.753 163.334 -201.281 165.12 -201.159L392.212 -185.649C394.154 -185.516 395.783 -184.618 396.686 -183.177C397.431 -181.985 397.617 -180.514 397.21 -179.028L339.641 30.1667C338.705 33.5675 334.942 36.13 331.248 35.8757L104.157 20.3657C102.216 20.2355 100.586 19.334 99.6828 17.8931Z" fill="white"/>
<path opacity="0.8" d="M394.331 -193.009C393.294 -194.664 391.411 -195.662 389.164 -195.752L167.626 -204.591C163.525 -204.754 159.446 -201.827 158.538 -198.068L109.512 4.90485C109.132 6.46895 109.356 8.02476 110.143 9.27414C111.18 10.9294 113.063 11.9269 115.31 12.0175L336.846 20.8613C340.947 21.0244 345.026 18.0969 345.936 14.3419L394.964 -188.637C395.341 -190.204 395.115 -191.754 394.331 -193.009ZM110.99 8.77034C110.303 7.67308 110.107 6.31254 110.435 4.9432L159.465 -198.032C160.259 -201.322 163.828 -203.883 167.424 -203.741L388.962 -194.903C390.929 -194.824 392.579 -193.949 393.485 -192.502C394.173 -191.405 394.367 -190.047 394.037 -188.673L345.007 14.3025C344.213 17.5921 340.644 20.1532 337.051 20.0095L115.508 11.1699C113.543 11.094 111.896 10.2175 110.99 8.77034Z" fill="white"/>
</g>
</g>
</svg>
