<svg width="17" height="17" viewBox="0 0 16 16" fill="none" xmlns="http://www.w3.org/2000/svg">
<path d="M15.1 2.3125L15.1 2.31222C15.099 1.938 14.9498 1.57939 14.6852 1.31477C14.4206 1.05016 14.062 0.901036 13.6878 0.9H13.6875H9.09375C8.89318 0.9 8.70082 0.979676 8.559 1.1215C8.41718 1.26332 8.3375 1.45568 8.3375 1.65625C8.3375 1.85682 8.41718 2.04917 8.559 2.191C8.70082 2.33282 8.89318 2.4125 9.09375 2.4125H12.2064L5.77753 8.83928L5.77752 8.83929C5.59439 9.02242 5.4915 9.2708 5.4915 9.52979C5.4915 9.78878 5.59439 10.0372 5.77752 10.2203C5.96065 10.4034 6.20903 10.5063 6.46802 10.5063C6.72701 10.5063 6.97539 10.4034 7.15852 10.2203L13.5875 3.79345V6.90625C13.5875 7.10682 13.6672 7.29918 13.809 7.441C13.9508 7.58282 14.1432 7.6625 14.3438 7.6625C14.5443 7.6625 14.7367 7.58282 14.8785 7.441C15.0203 7.29918 15.1 7.10682 15.1 6.90625V2.3125ZM13.5875 10.625V13.5875H2.4125V2.4125H5.375C5.57557 2.4125 5.76792 2.33282 5.90975 2.191C6.05157 2.04918 6.13125 1.85682 6.13125 1.65625C6.13125 1.45568 6.05157 1.26332 5.90975 1.1215C5.76792 0.979676 5.57557 0.9 5.375 0.9L2.3125 0.9L2.31222 0.9C1.938 0.901036 1.57939 1.05016 1.31477 1.31477C1.05016 1.57939 0.901036 1.938 0.9 2.31222V2.3125L0.9 13.6875L0.9 13.6878C0.901036 14.062 1.05016 14.4206 1.31477 14.6852C1.57939 14.9498 1.938 15.099 2.31222 15.1H2.3125H13.6875L13.6878 15.1C14.062 15.099 14.4206 14.9498 14.6852 14.6852C14.9498 14.4206 15.099 14.062 15.1 13.6878V13.6875V10.625C15.1 10.4244 15.0203 10.2321 14.8785 10.0903C14.7367 9.94843 14.5443 9.86875 14.3438 9.86875C14.1432 9.86875 13.9508 9.94843 13.809 10.0903C13.6672 10.2321 13.5875 10.4244 13.5875 10.625Z" fill="#1D1929" stroke="black" stroke-width="0.2"/>
</svg>
